<?xml version="1.0" encoding="UTF-8"?>
<svg viewBox="0 0 793.7 1122.5" xmlns="http://www.w3.org/2000/svg">
 <g fill="#231f20">
  <path d="m636.89 439.25c51.443 0 93.161-40.063 93.161-89.298 0-49.236-41.718-89.164-93.161-89.164-51.583 0-93.301 39.928-93.301 89.164s41.718 89.298 93.301 89.298"/>
  <path d="m368.27 463.84l-101.91 135.31c-6.0416 8.5352-15.154 13.77-25.454 13.77-18.224 0-32.981-16.956-32.981-37.782 0-11.38 4.2588-21.509 11.093-28.45l109.94-145.44c6.0416-8.3076 15.153-13.656 25.454-13.656l159.06-0.1137c11.687 0 22.186 5.4624 29.911 13.998l101.42 116.53 84.087-96.39c5.9425-5.8038 13.569-9.2179 21.888-9.2179 18.818 0 33.972 17.525 33.972 39.148 0 9.4457-2.7732 17.981-7.6263 24.809l-101.32 117.33c-30.802 35.279-55.563 5.3486-55.563 5.3486l-62.198-71.809-97.16 129.17 89.039 102.31s18.818 20.029 8.0223 59.86l-49.917 255.71c-3.9617 22.192-20.997 38.92-41.4 38.92-23.473 0-42.39-21.85-42.39-48.707 0-4.3243 0.39624-8.4214 1.2876-12.29l41.102-209.74-101.22-113.01-87.058 111.53s-14.064 19.915-51.403 18.436l-176.59 0.3414c-19.709 0.34143-37.636-15.136-41.994-38.124-5.2492-26.174 8.8148-51.894 31.694-57.698 3.5655-0.9104 7.131-1.2518 10.598-1.1381l151.83 0.4553 224.53-299.07-58.732-0.3414z"/>
 </g>
</svg>
